<svg width="355" height="90" viewBox="0 0 355 90" fill="none" xmlns="http://www.w3.org/2000/svg">
<g clip-path="url(#clip0_7_116)">
<path d="M343.974 58.2094L335.874 43.3526H333.599V58.2094H324.111V18.8525H340.035C343.104 18.8525 345.712 19.3944 347.859 20.4784C350.041 21.5623 351.667 23.0573 352.741 24.9635C353.814 26.8323 354.35 28.9254 354.35 31.2427C354.35 33.859 353.608 36.195 352.131 38.2508C350.688 40.3063 348.544 41.7642 345.695 42.6236L354.682 58.2094H343.974ZM333.599 36.569H339.479C341.217 36.569 342.514 36.1391 343.364 35.2794C344.252 34.4196 344.696 33.205 344.696 31.6351C344.696 30.1401 344.252 28.9627 343.364 28.1031C342.514 27.2435 341.217 26.8136 339.479 26.8136H333.599V36.569ZM298.923 58.602C295.261 58.602 291.895 57.7423 288.825 56.0232C285.792 54.3037 283.369 51.9115 281.557 48.8469C279.781 45.7448 278.894 42.2686 278.894 38.4188C278.894 34.569 279.781 31.1119 281.557 28.047C283.369 24.9822 285.792 22.5901 288.825 20.8708C291.895 19.1515 295.261 18.2919 298.923 18.2919C302.584 18.2919 305.932 19.1515 308.965 20.8708C312.035 22.5901 314.439 24.9822 316.177 28.047C317.953 31.1119 318.841 34.569 318.841 38.4188C318.841 42.2686 317.953 45.7448 316.177 48.8469C314.402 51.9115 311.998 54.3037 308.965 56.0232C305.932 57.7423 302.584 58.602 298.923 58.602ZM298.923 49.856C302.03 49.856 304.508 48.8093 306.357 46.7163C308.244 44.6232 309.187 41.8574 309.187 38.4188C309.187 34.943 308.244 32.1771 306.357 30.1214C304.508 28.0283 302.03 26.9818 298.923 26.9818C295.778 26.9818 293.263 28.0097 291.377 30.0653C289.528 32.121 288.603 34.9054 288.603 38.4188C288.603 41.895 289.528 44.6794 291.377 46.7725C293.263 48.8283 295.778 49.856 298.923 49.856ZM275.731 18.8525V26.5333H265.411V58.2094H255.924V26.5333H245.604V18.8525H275.731ZM231.068 51.2578H216.532L214.201 58.2094H204.27L218.363 18.8525H229.348L243.441 58.2094H233.398L231.068 51.2578ZM228.627 43.8569L223.8 29.4486L219.028 43.8569H228.627ZM186.294 26.5333V34.4945H198.999V41.895H186.294V50.5288H200.664V58.2094H176.806V18.8525H200.664V26.5333H186.294ZM160.495 58.2094L152.394 43.3526H150.119V58.2094H140.632V18.8525H156.555C159.625 18.8525 162.233 19.3944 164.378 20.4784C166.561 21.5623 168.188 23.0573 169.261 24.9635C170.333 26.8323 170.87 28.9254 170.87 31.2427C170.87 33.859 170.13 36.195 168.65 38.2508C167.208 40.3063 165.063 41.7642 162.215 42.6236L171.203 58.2094H160.495ZM150.119 36.569H156.001C157.739 36.569 159.034 36.1391 159.884 35.2794C160.772 34.4196 161.216 33.205 161.216 31.6351C161.216 30.1401 160.772 28.9627 159.884 28.1031C159.034 27.2435 157.739 26.8136 156.001 26.8136H150.119V36.569ZM124.542 58.2094L111.448 40.8296V58.2094H101.961V18.8525H111.448V36.1201L124.431 18.8525H135.583L120.492 38.1387L136.138 58.2094H124.542Z" fill="#04368F"/>
<path d="M353.527 70.4861L354.59 68.3246C353.371 67.5655 351.663 67.0706 349.953 67.0706C347.128 67.0706 345.227 68.3906 345.227 70.4861C345.227 74.5784 351.731 73.3078 351.731 75.4859C351.731 76.1952 351.054 76.5915 349.919 76.5915C348.628 76.5915 346.85 75.9147 345.593 74.8589L344.496 76.9875C345.874 78.0928 347.88 78.8191 349.885 78.8191C352.585 78.8191 354.661 77.5979 354.661 75.3372C354.678 71.1791 348.174 72.3671 348.174 70.2388C348.174 69.6118 348.804 69.2981 349.726 69.2981C350.705 69.2981 352.239 69.7602 353.527 70.4861ZM333.843 67.1861V78.7364H343.327V76.5749H336.598V74.0174H342.473V71.8556H336.598V69.3476H343.137V67.1861H333.843ZM324.218 67.1861V78.7364H332.204V76.4594H326.973V67.1861H324.218ZM319.999 78.7364H322.945L317.732 67.1861H314.89L309.59 78.7364H312.432L313.391 76.4923H319.04L319.999 78.7364ZM314.297 74.3968L316.233 69.9085L318.15 74.3968H314.297ZM305.527 67.1861V78.7364H308.282V67.1861H305.527ZM303.522 78.7364L300.924 74.9249C302.406 74.2647 303.208 72.9778 303.208 71.1957C303.208 68.6382 301.395 67.1861 298.204 67.1861H292.904V78.7364H295.658V75.4364H298.204H298.466L300.401 78.7364H303.522ZM295.658 69.3476H298.204C299.721 69.3476 300.593 69.9912 300.593 71.2781C300.593 72.5981 299.721 73.2583 298.204 73.2583H295.658V69.3476ZM288.684 78.7364H291.631L286.417 67.1861H283.575L278.275 78.7364H281.117L282.076 76.4923H287.725L288.684 78.7364ZM282.982 74.3968L284.918 69.9085L286.836 74.3968H282.982ZM276.601 70.4861L277.665 68.3246C276.444 67.5655 274.735 67.0706 273.027 67.0706C270.202 67.0706 268.301 68.3906 268.301 70.4861C268.301 74.5784 274.805 73.3078 274.805 75.4859C274.805 76.1952 274.125 76.5915 272.992 76.5915C271.701 76.5915 269.923 75.9147 268.668 74.8589L267.569 76.9875C268.947 78.0928 270.952 78.8191 272.957 78.8191C275.659 78.8191 277.734 77.5979 277.734 75.3372C277.752 71.1791 271.248 72.3671 271.248 70.2388C271.248 69.6118 271.876 69.2981 272.8 69.2981C273.776 69.2981 275.311 69.7602 276.601 70.4861ZM256.916 67.1861V78.7364H266.401V76.5749H259.671V74.0174H265.546V71.8556H259.671V69.3476H266.209V67.1861H256.916ZM254.911 78.7364L252.313 74.9249C253.795 74.2647 254.597 72.9778 254.597 71.1957C254.597 68.6382 252.783 67.1861 249.593 67.1861H244.292V78.7364H247.047V75.4364H249.593H249.854L251.79 78.7364H254.911ZM247.047 69.3476H249.593C251.11 69.3476 251.982 69.9912 251.982 71.2781C251.982 72.5981 251.11 73.2583 249.593 73.2583H247.047V69.3476ZM237.649 67.1861H232.471V78.7364H235.225V75.4364H237.649C240.753 75.4364 242.531 73.8853 242.531 71.1957C242.531 68.6382 240.753 67.1861 237.649 67.1861ZM237.51 73.2583H235.225V69.3476H237.51C239.044 69.3476 239.916 69.9912 239.916 71.2781C239.916 72.5981 239.044 73.2583 237.51 73.2583ZM216.517 67.1861V78.7364H219.01V70.9481L222.253 77.5647H224.049L227.292 70.9481V78.7364H229.768V67.1861H226.699L223.16 74.2481L219.603 67.1861H216.517ZM204.87 67.1861V78.7364H214.355V76.5749H207.625V74.0174H213.501V71.8556H207.625V69.3476H214.163V67.1861H204.87ZM196.57 70.4861L197.634 68.3246C196.414 67.5655 194.705 67.0706 192.996 67.0706C190.171 67.0706 188.271 68.3906 188.271 70.4861C188.271 74.5784 194.774 73.3078 194.774 75.4859C194.774 76.1952 194.095 76.5915 192.961 76.5915C191.671 76.5915 189.893 75.9147 188.637 74.8589L187.539 76.9875C188.916 78.0928 190.921 78.8191 192.926 78.8191C195.629 78.8191 197.704 77.5979 197.704 75.3372C197.721 71.1791 191.218 72.3671 191.218 70.2388C191.218 69.6118 191.845 69.2981 192.769 69.2981C193.746 69.2981 195.28 69.7602 196.57 70.4861ZM184.313 78.7364H187.259L182.046 67.1861H179.204L173.904 78.7364H176.746L177.705 76.4923H183.354L184.313 78.7364ZM178.611 74.3968L180.547 69.9085L182.465 74.3968H178.611ZM169.841 67.1861V78.7364H172.596V67.1861H169.841ZM165.046 75.9479C164.262 76.3273 163.39 76.5749 162.658 76.5749C160.496 76.5749 158.804 75.0072 158.804 72.9613C158.804 70.9315 160.478 69.3642 162.64 69.3642C163.826 69.3642 165.081 69.8591 165.988 70.651L167.54 68.7866C166.302 67.7636 164.453 67.1034 162.64 67.1034C158.839 67.1034 155.98 69.628 155.98 72.9613C155.98 76.3107 158.787 78.8519 162.483 78.8519C164.175 78.8519 166.145 78.2415 167.435 77.3503V72.9118H165.046V75.9479ZM154.846 78.7364L152.248 74.9249C153.731 74.2647 154.532 72.9778 154.532 71.1957C154.532 68.6382 152.719 67.1861 149.529 67.1861H144.228V78.7364H146.983V75.4364H149.529H149.79L151.725 78.7364H154.846ZM146.983 69.3476H149.529C151.045 69.3476 151.917 69.9912 151.917 71.2781C151.917 72.5981 151.045 73.2583 149.529 73.2583H146.983V69.3476ZM132.581 67.1861V78.7364H142.066V76.5749H135.336V74.0174H141.211V71.8556H135.336V69.3476H141.874V67.1861H132.581ZM118.841 67.1861V78.7364H121.474V71.3278L127.385 78.7364H129.895V67.1861H127.28V74.6113L121.352 67.1861H118.841ZM113.384 67.1861V78.7364H116.139V67.1861H113.384ZM110.315 70.4861L111.379 68.3246C110.158 67.5655 108.449 67.0706 106.741 67.0706C103.916 67.0706 102.016 68.3906 102.016 70.4861C102.016 74.5784 108.519 73.3078 108.519 75.4859C108.519 76.1952 107.839 76.5915 106.706 76.5915C105.416 76.5915 103.637 75.9147 102.382 74.8589L101.283 76.9875C102.661 78.0928 104.666 78.8191 106.671 78.8191C109.374 78.8191 111.449 77.5979 111.449 75.3372C111.466 71.1791 104.963 72.3671 104.963 70.2388C104.963 69.6118 105.59 69.2981 106.514 69.2981C107.491 69.2981 109.025 69.7602 110.315 70.4861Z" fill="#04368F"/>
<path d="M44.6786 1.01624H44.6783C20.5645 1.01624 1.01636 20.5644 1.01636 44.6782V44.6785C1.01636 68.7924 20.5645 88.3405 44.6783 88.3405H44.6786C68.7925 88.3405 88.3406 68.7924 88.3406 44.6785V44.6782C88.3406 20.5644 68.7925 1.01624 44.6786 1.01624Z" fill="#04368F" stroke="#04368F" stroke-width="2.03244"/>
<path d="M44.706 86.3992C67.5645 86.3992 86.095 67.8006 86.095 44.8581C86.095 21.9156 67.5645 3.31702 44.706 3.31702C21.8474 3.31702 3.31689 21.9156 3.31689 44.8581C3.31689 67.8006 21.8474 86.3992 44.706 86.3992Z" fill="white" stroke="white" stroke-width="1.02085"/>
<path d="M37.6524 60.8164L43.0992 65.8629H24.676V22.8854H39.0941V32.9786L50.1479 22.8854H70.4934L41.337 50.723L51.7498 60.8164H58.3181L48.2255 50.723L51.1091 47.793L70.4934 65.8629H50.1479L34.1277 50.723L58.3181 27.4436H51.7498L34.1277 44.6996V27.4436H29.6422V60.8164H37.6524Z" fill="#FFA00E"/>
</g>
<defs>
<clipPath id="clip0_7_116">
<rect width="355" height="89.4275" fill="white"/>
</clipPath>
</defs>
</svg>
