<svg width="355" height="90" viewBox="0 0 355 90" fill="none" xmlns="http://www.w3.org/2000/svg">
<g clip-path="url(#clip0_7_130)">
<path d="M343.974 58.4919L335.874 43.635H333.599V58.4919H324.111V19.135H340.035C343.104 19.135 345.712 19.6769 347.859 20.7608C350.041 21.8447 351.667 23.3398 352.741 25.246C353.814 27.1148 354.35 29.2078 354.35 31.5251C354.35 34.1415 353.608 36.4775 352.131 38.5333C350.688 40.5887 348.544 42.0467 345.695 42.9061L354.682 58.4919H343.974ZM333.599 36.8514H339.479C341.217 36.8514 342.514 36.4216 343.364 35.5618C344.252 34.7021 344.696 33.4874 344.696 31.9176C344.696 30.4226 344.252 29.2452 343.364 28.3856C342.514 27.5259 341.217 27.0961 339.479 27.0961H333.599V36.8514ZM298.923 58.8845C295.261 58.8845 291.895 58.0247 288.825 56.3056C285.792 54.5862 283.369 52.194 281.557 49.1294C279.781 46.0272 278.894 42.5511 278.894 38.7013C278.894 34.8515 279.781 31.3943 281.557 28.3295C283.369 25.2647 285.792 22.8726 288.825 21.1533C291.895 19.434 295.261 18.5743 298.923 18.5743C302.584 18.5743 305.932 19.434 308.965 21.1533C312.035 22.8726 314.439 25.2647 316.177 28.3295C317.953 31.3943 318.841 34.8515 318.841 38.7013C318.841 42.5511 317.953 46.0272 316.177 49.1294C314.402 52.194 311.998 54.5862 308.965 56.3056C305.932 58.0247 302.584 58.8845 298.923 58.8845ZM298.923 50.1385C302.03 50.1385 304.508 49.0918 306.357 46.9987C308.244 44.9057 309.187 42.1398 309.187 38.7013C309.187 35.2255 308.244 32.4595 306.357 30.4039C304.508 28.3108 302.03 27.2643 298.923 27.2643C295.778 27.2643 293.263 28.2921 291.377 30.3478C289.528 32.4035 288.603 35.1879 288.603 38.7013C288.603 42.1774 289.528 44.9619 291.377 47.055C293.263 49.1108 295.778 50.1385 298.923 50.1385ZM275.731 19.135V26.8158H265.411V58.4919H255.924V26.8158H245.604V19.135H275.731ZM231.068 51.5402H216.532L214.201 58.4919H204.27L218.363 19.135H229.348L243.441 58.4919H233.398L231.068 51.5402ZM228.627 44.1394L223.8 29.7311L219.028 44.1394H228.627ZM186.294 26.8158V34.777H198.999V42.1774H186.294V50.8113H200.664V58.4919H176.806V19.135H200.664V26.8158H186.294ZM160.495 58.4919L152.394 43.635H150.119V58.4919H140.632V19.135H156.555C159.625 19.135 162.233 19.6769 164.378 20.7608C166.561 21.8447 168.188 23.3398 169.261 25.246C170.333 27.1148 170.87 29.2078 170.87 31.5251C170.87 34.1415 170.13 36.4775 168.65 38.5333C167.208 40.5887 165.063 42.0467 162.215 42.9061L171.203 58.4919H160.495ZM150.119 36.8514H156.001C157.739 36.8514 159.034 36.4216 159.884 35.5618C160.772 34.7021 161.216 33.4874 161.216 31.9176C161.216 30.4226 160.772 29.2452 159.884 28.3856C159.034 27.5259 157.739 27.0961 156.001 27.0961H150.119V36.8514ZM124.542 58.4919L111.448 41.1121V58.4919H101.961V19.135H111.448V36.4026L124.431 19.135H135.583L120.492 38.4211L136.138 58.4919H124.542Z" fill="white"/>
<path d="M353.527 70.7685L354.59 68.607C353.371 67.8479 351.663 67.353 349.953 67.353C347.128 67.353 345.227 68.6731 345.227 70.7685C345.227 74.8609 351.731 73.5903 351.731 75.7684C351.731 76.4777 351.054 76.874 349.919 76.874C348.628 76.874 346.85 76.1972 345.593 75.1413L344.496 77.27C345.874 78.3753 347.88 79.1016 349.885 79.1016C352.585 79.1016 354.661 77.8804 354.661 75.6197C354.678 71.4616 348.174 72.6496 348.174 70.5213C348.174 69.8943 348.804 69.5806 349.726 69.5806C350.705 69.5806 352.239 70.0426 353.527 70.7685ZM333.843 67.4685V79.0189H343.327V76.8574H336.598V74.2999H342.473V72.1381H336.598V69.63H343.137V67.4685H333.843ZM324.218 67.4685V79.0189H332.204V76.7419H326.973V67.4685H324.218ZM319.999 79.0189H322.945L317.732 67.4685H314.89L309.59 79.0189H312.432L313.391 76.7748H319.04L319.999 79.0189ZM314.297 74.6793L316.233 70.191L318.15 74.6793H314.297ZM305.527 67.4685V79.0189H308.282V67.4685H305.527ZM303.522 79.0189L300.924 75.2074C302.406 74.5472 303.208 73.2603 303.208 71.4782C303.208 68.9207 301.395 67.4685 298.204 67.4685H292.904V79.0189H295.658V75.7189H298.204H298.466L300.401 79.0189H303.522ZM295.658 69.63H298.204C299.721 69.63 300.593 70.2736 300.593 71.5605C300.593 72.8806 299.721 73.5408 298.204 73.5408H295.658V69.63ZM288.684 79.0189H291.631L286.417 67.4685H283.575L278.275 79.0189H281.117L282.076 76.7748H287.725L288.684 79.0189ZM282.982 74.6793L284.918 70.191L286.836 74.6793H282.982ZM276.601 70.7685L277.665 68.607C276.444 67.8479 274.735 67.353 273.027 67.353C270.202 67.353 268.301 68.6731 268.301 70.7685C268.301 74.8609 274.805 73.5903 274.805 75.7684C274.805 76.4777 274.125 76.874 272.992 76.874C271.701 76.874 269.923 76.1972 268.668 75.1413L267.569 77.27C268.947 78.3753 270.952 79.1016 272.957 79.1016C275.659 79.1016 277.734 77.8804 277.734 75.6197C277.752 71.4616 271.248 72.6496 271.248 70.5213C271.248 69.8943 271.876 69.5806 272.8 69.5806C273.776 69.5806 275.311 70.0426 276.601 70.7685ZM256.916 67.4685V79.0189H266.401V76.8574H259.671V74.2999H265.546V72.1381H259.671V69.63H266.209V67.4685H256.916ZM254.911 79.0189L252.313 75.2074C253.795 74.5472 254.597 73.2603 254.597 71.4782C254.597 68.9207 252.783 67.4685 249.593 67.4685H244.292V79.0189H247.047V75.7189H249.593H249.854L251.79 79.0189H254.911ZM247.047 69.63H249.593C251.11 69.63 251.982 70.2736 251.982 71.5605C251.982 72.8806 251.11 73.5408 249.593 73.5408H247.047V69.63ZM237.649 67.4685H232.471V79.0189H235.225V75.7189H237.649C240.753 75.7189 242.531 74.1678 242.531 71.4782C242.531 68.9207 240.753 67.4685 237.649 67.4685ZM237.51 73.5408H235.225V69.63H237.51C239.044 69.63 239.916 70.2736 239.916 71.5605C239.916 72.8806 239.044 73.5408 237.51 73.5408ZM216.517 67.4685V79.0189H219.01V71.2306L222.253 77.8472H224.049L227.292 71.2306V79.0189H229.768V67.4685H226.699L223.16 74.5306L219.603 67.4685H216.517ZM204.87 67.4685V79.0189H214.355V76.8574H207.625V74.2999H213.501V72.1381H207.625V69.63H214.163V67.4685H204.87ZM196.57 70.7685L197.634 68.607C196.414 67.8479 194.705 67.353 192.996 67.353C190.171 67.353 188.271 68.6731 188.271 70.7685C188.271 74.8609 194.774 73.5903 194.774 75.7684C194.774 76.4777 194.095 76.874 192.961 76.874C191.671 76.874 189.893 76.1972 188.637 75.1413L187.539 77.27C188.916 78.3753 190.921 79.1016 192.926 79.1016C195.629 79.1016 197.704 77.8804 197.704 75.6197C197.721 71.4616 191.218 72.6496 191.218 70.5213C191.218 69.8943 191.845 69.5806 192.769 69.5806C193.746 69.5806 195.28 70.0426 196.57 70.7685ZM184.313 79.0189H187.259L182.046 67.4685H179.204L173.904 79.0189H176.746L177.705 76.7748H183.354L184.313 79.0189ZM178.611 74.6793L180.547 70.191L182.465 74.6793H178.611ZM169.841 67.4685V79.0189H172.596V67.4685H169.841ZM165.046 76.2304C164.262 76.6098 163.39 76.8574 162.658 76.8574C160.496 76.8574 158.804 75.2897 158.804 73.2437C158.804 71.214 160.478 69.6466 162.64 69.6466C163.826 69.6466 165.081 70.1415 165.988 70.9335L167.54 69.0691C166.302 68.0461 164.453 67.3859 162.64 67.3859C158.839 67.3859 155.98 69.9105 155.98 73.2437C155.98 76.5932 158.787 79.1344 162.483 79.1344C164.175 79.1344 166.145 78.524 167.435 77.6328V73.1943H165.046V76.2304ZM154.846 79.0189L152.248 75.2074C153.731 74.5472 154.532 73.2603 154.532 71.4782C154.532 68.9207 152.719 67.4685 149.529 67.4685H144.228V79.0189H146.983V75.7189H149.529H149.79L151.725 79.0189H154.846ZM146.983 69.63H149.529C151.045 69.63 151.917 70.2736 151.917 71.5605C151.917 72.8806 151.045 73.5408 149.529 73.5408H146.983V69.63ZM132.581 67.4685V79.0189H142.066V76.8574H135.336V74.2999H141.211V72.1381H135.336V69.63H141.874V67.4685H132.581ZM118.841 67.4685V79.0189H121.474V71.6103L127.385 79.0189H129.895V67.4685H127.28V74.8937L121.352 67.4685H118.841ZM113.384 67.4685V79.0189H116.139V67.4685H113.384ZM110.315 70.7685L111.379 68.607C110.158 67.8479 108.449 67.353 106.741 67.353C103.916 67.353 102.016 68.6731 102.016 70.7685C102.016 74.8609 108.519 73.5903 108.519 75.7684C108.519 76.4777 107.839 76.874 106.706 76.874C105.416 76.874 103.637 76.1972 102.382 75.1413L101.283 77.27C102.661 78.3753 104.666 79.1016 106.671 79.1016C109.374 79.1016 111.449 77.8804 111.449 75.6197C111.466 71.4616 104.963 72.6496 104.963 70.5213C104.963 69.8943 105.59 69.5806 106.514 69.5806C107.491 69.5806 109.025 70.0426 110.315 70.7685Z" fill="white"/>
<path d="M44.6786 1.29871H44.6783C20.5645 1.29871 1.01636 20.8468 1.01636 44.9607V44.961C1.01636 69.0748 20.5645 88.6229 44.6783 88.6229H44.6786C68.7925 88.6229 88.3406 69.0748 88.3406 44.961V44.9607C88.3406 20.8468 68.7925 1.29871 44.6786 1.29871Z" fill="#04368F" stroke="#04368F" stroke-width="2.03244"/>
<path d="M44.706 86.6816C67.5645 86.6816 86.095 68.0831 86.095 45.1406C86.095 22.1981 67.5645 3.59949 44.706 3.59949C21.8474 3.59949 3.31689 22.1981 3.31689 45.1406C3.31689 68.0831 21.8474 86.6816 44.706 86.6816Z" fill="white" stroke="white" stroke-width="1.02085"/>
<path d="M37.6524 61.0989L43.0992 66.1454H24.676V23.1678H39.0941V33.2611L50.1479 23.1678H70.4934L41.337 51.0055L51.7498 61.0989H58.3181L48.2255 51.0055L51.1091 48.0754L70.4934 66.1454H50.1479L34.1277 51.0055L58.3181 27.7261H51.7498L34.1277 44.9821V27.7261H29.6422V61.0989H37.6524Z" fill="#FFA00E"/>
</g>
<defs>
<clipPath id="clip0_7_130">
<rect width="355" height="89.4275" fill="white" transform="translate(0 0.282471)"/>
</clipPath>
</defs>
</svg>
