<svg width="355" height="91" viewBox="0 0 355 91" fill="none" xmlns="http://www.w3.org/2000/svg">
<g clip-path="url(#clip0_7_136)">
<path d="M343.974 58.9193L335.874 44.0625H333.599V58.9193H324.111V19.5624H340.035C343.104 19.5624 345.712 20.1044 347.859 21.1883C350.041 22.2722 351.667 23.7673 352.741 25.6735C353.814 27.5423 354.35 29.6353 354.35 31.9526C354.35 34.569 353.608 36.9049 352.131 38.9608C350.688 41.0162 348.544 42.4742 345.695 43.3336L354.682 58.9193H343.974ZM333.599 37.2789H339.479C341.217 37.2789 342.514 36.8491 343.364 35.9893C344.252 35.1296 344.696 33.9149 344.696 32.3451C344.696 30.8501 344.252 29.6727 343.364 28.813C342.514 27.9534 341.217 27.5236 339.479 27.5236H333.599V37.2789ZM298.923 59.3119C295.261 59.3119 291.895 58.4522 288.825 56.7331C285.792 55.0137 283.369 52.6215 281.557 49.5569C279.781 46.4547 278.894 42.9786 278.894 39.1288C278.894 35.279 279.781 31.8218 281.557 28.757C283.369 25.6922 285.792 23.3001 288.825 21.5808C291.895 19.8615 295.261 19.0018 298.923 19.0018C302.584 19.0018 305.932 19.8615 308.965 21.5808C312.035 23.3001 314.439 25.6922 316.177 28.757C317.953 31.8218 318.841 35.279 318.841 39.1288C318.841 42.9786 317.953 46.4547 316.177 49.5569C314.402 52.6215 311.998 55.0137 308.965 56.7331C305.932 58.4522 302.584 59.3119 298.923 59.3119ZM298.923 50.566C302.03 50.566 304.508 49.5193 306.357 47.4262C308.244 45.3331 309.187 42.5673 309.187 39.1288C309.187 35.653 308.244 32.887 306.357 30.8314C304.508 28.7383 302.03 27.6918 298.923 27.6918C295.778 27.6918 293.263 28.7196 291.377 30.7753C289.528 32.831 288.603 35.6154 288.603 39.1288C288.603 42.6049 289.528 45.3894 291.377 47.4825C293.263 49.5383 295.778 50.566 298.923 50.566ZM275.731 19.5624V27.2433H265.411V58.9193H255.924V27.2433H245.604V19.5624H275.731ZM231.068 51.9677H216.532L214.201 58.9193H204.27L218.363 19.5624H229.348L243.441 58.9193H233.398L231.068 51.9677ZM228.627 44.5669L223.8 30.1586L219.028 44.5669H228.627ZM186.294 27.2433V35.2045H198.999V42.6049H186.294V51.2387H200.664V58.9193H176.806V19.5624H200.664V27.2433H186.294ZM160.495 58.9193L152.394 44.0625H150.119V58.9193H140.632V19.5624H156.555C159.625 19.5624 162.233 20.1044 164.378 21.1883C166.561 22.2722 168.188 23.7673 169.261 25.6735C170.333 27.5423 170.87 29.6353 170.87 31.9526C170.87 34.569 170.13 36.9049 168.65 38.9608C167.208 41.0162 165.063 42.4742 162.215 43.3336L171.203 58.9193H160.495ZM150.119 37.2789H156.001C157.739 37.2789 159.034 36.8491 159.884 35.9893C160.772 35.1296 161.216 33.9149 161.216 32.3451C161.216 30.8501 160.772 29.6727 159.884 28.813C159.034 27.9534 157.739 27.5236 156.001 27.5236H150.119V37.2789ZM124.542 58.9193L111.448 41.5396V58.9193H101.961V19.5624H111.448V36.8301L124.431 19.5624H135.583L120.492 38.8486L136.138 58.9193H124.542Z" fill="#FFA00E"/>
<path d="M353.527 71.196L354.59 69.0345C353.371 68.2754 351.663 67.7805 349.953 67.7805C347.128 67.7805 345.227 69.1006 345.227 71.196C345.227 75.2884 351.731 74.0177 351.731 76.1958C351.731 76.9052 351.054 77.3015 349.919 77.3015C348.628 77.3015 346.85 76.6247 345.593 75.5688L344.496 77.6975C345.874 78.8028 347.88 79.5291 349.885 79.5291C352.585 79.5291 354.661 78.3079 354.661 76.0471C354.678 71.8891 348.174 73.0771 348.174 70.9488C348.174 70.3217 348.804 70.0081 349.726 70.0081C350.705 70.0081 352.239 70.4701 353.527 71.196ZM333.843 67.896V79.4464H343.327V77.2849H336.598V74.7274H342.473V72.5656H336.598V70.0575H343.137V67.896H333.843ZM324.218 67.896V79.4464H332.204V77.1694H326.973V67.896H324.218ZM319.999 79.4464H322.945L317.732 67.896H314.89L309.59 79.4464H312.432L313.391 77.2022H319.04L319.999 79.4464ZM314.297 75.1068L316.233 70.6185L318.15 75.1068H314.297ZM305.527 67.896V79.4464H308.282V67.896H305.527ZM303.522 79.4464L300.924 75.6349C302.406 74.9747 303.208 73.6878 303.208 71.9057C303.208 69.3482 301.395 67.896 298.204 67.896H292.904V79.4464H295.658V76.1464H298.204H298.466L300.401 79.4464H303.522ZM295.658 70.0575H298.204C299.721 70.0575 300.593 70.7011 300.593 71.988C300.593 73.3081 299.721 73.9683 298.204 73.9683H295.658V70.0575ZM288.684 79.4464H291.631L286.417 67.896H283.575L278.275 79.4464H281.117L282.076 77.2022H287.725L288.684 79.4464ZM282.982 75.1068L284.918 70.6185L286.836 75.1068H282.982ZM276.601 71.196L277.665 69.0345C276.444 68.2754 274.735 67.7805 273.027 67.7805C270.202 67.7805 268.301 69.1006 268.301 71.196C268.301 75.2884 274.805 74.0177 274.805 76.1958C274.805 76.9052 274.125 77.3015 272.992 77.3015C271.701 77.3015 269.923 76.6247 268.668 75.5688L267.569 77.6975C268.947 78.8028 270.952 79.5291 272.957 79.5291C275.659 79.5291 277.734 78.3079 277.734 76.0471C277.752 71.8891 271.248 73.0771 271.248 70.9488C271.248 70.3217 271.876 70.0081 272.8 70.0081C273.776 70.0081 275.311 70.4701 276.601 71.196ZM256.916 67.896V79.4464H266.401V77.2849H259.671V74.7274H265.546V72.5656H259.671V70.0575H266.209V67.896H256.916ZM254.911 79.4464L252.313 75.6349C253.795 74.9747 254.597 73.6878 254.597 71.9057C254.597 69.3482 252.783 67.896 249.593 67.896H244.292V79.4464H247.047V76.1464H249.593H249.854L251.79 79.4464H254.911ZM247.047 70.0575H249.593C251.11 70.0575 251.982 70.7011 251.982 71.988C251.982 73.3081 251.11 73.9683 249.593 73.9683H247.047V70.0575ZM237.649 67.896H232.471V79.4464H235.225V76.1464H237.649C240.753 76.1464 242.531 74.5953 242.531 71.9057C242.531 69.3482 240.753 67.896 237.649 67.896ZM237.51 73.9683H235.225V70.0575H237.51C239.044 70.0575 239.916 70.7011 239.916 71.988C239.916 73.3081 239.044 73.9683 237.51 73.9683ZM216.517 67.896V79.4464H219.01V71.6581L222.253 78.2747H224.049L227.292 71.6581V79.4464H229.768V67.896H226.699L223.16 74.9581L219.603 67.896H216.517ZM204.87 67.896V79.4464H214.355V77.2849H207.625V74.7274H213.501V72.5656H207.625V70.0575H214.163V67.896H204.87ZM196.57 71.196L197.634 69.0345C196.414 68.2754 194.705 67.7805 192.996 67.7805C190.171 67.7805 188.271 69.1006 188.271 71.196C188.271 75.2884 194.774 74.0177 194.774 76.1958C194.774 76.9052 194.095 77.3015 192.961 77.3015C191.671 77.3015 189.893 76.6247 188.637 75.5688L187.539 77.6975C188.916 78.8028 190.921 79.5291 192.926 79.5291C195.629 79.5291 197.704 78.3079 197.704 76.0471C197.721 71.8891 191.218 73.0771 191.218 70.9488C191.218 70.3217 191.845 70.0081 192.769 70.0081C193.746 70.0081 195.28 70.4701 196.57 71.196ZM184.313 79.4464H187.259L182.046 67.896H179.204L173.904 79.4464H176.746L177.705 77.2022H183.354L184.313 79.4464ZM178.611 75.1068L180.547 70.6185L182.465 75.1068H178.611ZM169.841 67.896V79.4464H172.596V67.896H169.841ZM165.046 76.6579C164.262 77.0373 163.39 77.2849 162.658 77.2849C160.496 77.2849 158.804 75.7172 158.804 73.6712C158.804 71.6415 160.478 70.0741 162.64 70.0741C163.826 70.0741 165.081 70.569 165.988 71.361L167.54 69.4966C166.302 68.4736 164.453 67.8134 162.64 67.8134C158.839 67.8134 155.98 70.338 155.98 73.6712C155.98 77.0207 158.787 79.5619 162.483 79.5619C164.175 79.5619 166.145 78.9515 167.435 78.0603V73.6218H165.046V76.6579ZM154.846 79.4464L152.248 75.6349C153.731 74.9747 154.532 73.6878 154.532 71.9057C154.532 69.3482 152.719 67.896 149.529 67.896H144.228V79.4464H146.983V76.1464H149.529H149.79L151.725 79.4464H154.846ZM146.983 70.0575H149.529C151.045 70.0575 151.917 70.7011 151.917 71.988C151.917 73.3081 151.045 73.9683 149.529 73.9683H146.983V70.0575ZM132.581 67.896V79.4464H142.066V77.2849H135.336V74.7274H141.211V72.5656H135.336V70.0575H141.874V67.896H132.581ZM118.841 67.896V79.4464H121.474V72.0378L127.385 79.4464H129.895V67.896H127.28V75.3212L121.352 67.896H118.841ZM113.384 67.896V79.4464H116.139V67.896H113.384ZM110.315 71.196L111.379 69.0345C110.158 68.2754 108.449 67.7805 106.741 67.7805C103.916 67.7805 102.016 69.1006 102.016 71.196C102.016 75.2884 108.519 74.0177 108.519 76.1958C108.519 76.9052 107.839 77.3015 106.706 77.3015C105.416 77.3015 103.637 76.6247 102.382 75.5688L101.283 77.6975C102.661 78.8028 104.666 79.5291 106.671 79.5291C109.374 79.5291 111.449 78.3079 111.449 76.0471C111.466 71.8891 104.963 73.0771 104.963 70.9488C104.963 70.3217 105.59 70.0081 106.514 70.0081C107.491 70.0081 109.025 70.4701 110.315 71.196Z" fill="#FFA00E"/>
<path d="M44.6786 1.7262H44.6783C20.5645 1.7262 1.01636 21.2743 1.01636 45.3881V45.3885C1.01636 69.5023 20.5645 89.0504 44.6783 89.0504H44.6786C68.7925 89.0504 88.3406 69.5023 88.3406 45.3885V45.3881C88.3406 21.2743 68.7925 1.7262 44.6786 1.7262Z" fill="#04368F" stroke="#04368F" stroke-width="2.03244"/>
<path d="M44.706 87.1091C67.5645 87.1091 86.095 68.5106 86.095 45.5681C86.095 22.6256 67.5645 4.02698 44.706 4.02698C21.8474 4.02698 3.31689 22.6256 3.31689 45.5681C3.31689 68.5106 21.8474 87.1091 44.706 87.1091Z" fill="white" stroke="white" stroke-width="1.02085"/>
<path d="M37.6524 61.5264L43.0992 66.5729H24.676V23.5953H39.0941V33.6886L50.1479 23.5953H70.4934L41.337 51.433L51.7498 61.5264H58.3181L48.2255 51.433L51.1091 48.5029L70.4934 66.5729H50.1479L34.1277 51.433L58.3181 28.1536H51.7498L34.1277 45.4096V28.1536H29.6422V61.5264H37.6524Z" fill="#FFA00E"/>
</g>
<defs>
<clipPath id="clip0_7_136">
<rect width="355" height="89.4275" fill="white" transform="translate(0 0.709961)"/>
</clipPath>
</defs>
</svg>
