<svg width="355" height="90" viewBox="0 0 355 90" fill="none" xmlns="http://www.w3.org/2000/svg">
<g clip-path="url(#clip0_7_118)">
<path d="M343.974 58.6369L335.874 43.7801H333.599V58.6369H324.111V19.28H340.035C343.104 19.28 345.712 19.8219 347.859 20.9059C350.041 21.9898 351.667 23.4848 352.741 25.391C353.814 27.2598 354.35 29.3529 354.35 31.6702C354.35 34.2865 353.608 36.6225 352.131 38.6783C350.688 40.7338 348.544 42.1917 345.695 43.0511L354.682 58.6369H343.974ZM333.599 36.9964H339.479C341.217 36.9964 342.514 36.5666 343.364 35.7069C344.252 34.8471 344.696 33.6324 344.696 32.0626C344.696 30.5676 344.252 29.3902 343.364 28.5306C342.514 27.6709 341.217 27.2411 339.479 27.2411H333.599V36.9964ZM298.923 59.0295C295.261 59.0295 291.895 58.1698 288.825 56.4506C285.792 54.7312 283.369 52.339 281.557 49.2744C279.781 46.1722 278.894 42.6961 278.894 38.8463C278.894 34.9965 279.781 31.5394 281.557 28.4745C283.369 25.4097 285.792 23.0176 288.825 21.2983C291.895 19.579 295.261 18.7194 298.923 18.7194C302.584 18.7194 305.932 19.579 308.965 21.2983C312.035 23.0176 314.439 25.4097 316.177 28.4745C317.953 31.5394 318.841 34.9965 318.841 38.8463C318.841 42.6961 317.953 46.1722 316.177 49.2744C314.402 52.339 311.998 54.7312 308.965 56.4506C305.932 58.1698 302.584 59.0295 298.923 59.0295ZM298.923 50.2835C302.03 50.2835 304.508 49.2368 306.357 47.1438C308.244 45.0507 309.187 42.2849 309.187 38.8463C309.187 35.3705 308.244 32.6046 306.357 30.5489C304.508 28.4558 302.03 27.4093 298.923 27.4093C295.778 27.4093 293.263 28.4371 291.377 30.4928C289.528 32.5485 288.603 35.3329 288.603 38.8463C288.603 42.3225 289.528 45.1069 291.377 47.2C293.263 49.2558 295.778 50.2835 298.923 50.2835ZM275.731 19.28V26.9608H265.411V58.6369H255.924V26.9608H245.604V19.28H275.731ZM231.068 51.6852H216.532L214.201 58.6369H204.27L218.363 19.28H229.348L243.441 58.6369H233.398L231.068 51.6852ZM228.627 44.2844L223.8 29.8761L219.028 44.2844H228.627ZM186.294 26.9608V34.922H198.999V42.3225H186.294V50.9563H200.664V58.6369H176.806V19.28H200.664V26.9608H186.294ZM160.495 58.6369L152.394 43.7801H150.119V58.6369H140.632V19.28H156.555C159.625 19.28 162.233 19.8219 164.378 20.9059C166.561 21.9898 168.188 23.4848 169.261 25.391C170.333 27.2598 170.87 29.3529 170.87 31.6702C170.87 34.2865 170.13 36.6225 168.65 38.6783C167.208 40.7338 165.063 42.1917 162.215 43.0511L171.203 58.6369H160.495ZM150.119 36.9964H156.001C157.739 36.9964 159.034 36.5666 159.884 35.7069C160.772 34.8471 161.216 33.6324 161.216 32.0626C161.216 30.5676 160.772 29.3902 159.884 28.5306C159.034 27.6709 157.739 27.2411 156.001 27.2411H150.119V36.9964ZM124.542 58.6369L111.448 41.2571V58.6369H101.961V19.28H111.448V36.5476L124.431 19.28H135.583L120.492 38.5662L136.138 58.6369H124.542Z" fill="white"/>
<path d="M353.527 70.9136L354.59 68.7521C353.371 67.9929 351.663 67.498 349.953 67.498C347.128 67.498 345.227 68.8181 345.227 70.9136C345.227 75.0059 351.731 73.7353 351.731 75.9134C351.731 76.6227 351.054 77.019 349.919 77.019C348.628 77.019 346.85 76.3422 345.593 75.2864L344.496 77.415C345.874 78.5203 347.88 79.2466 349.885 79.2466C352.585 79.2466 354.661 78.0254 354.661 75.7647C354.678 71.6066 348.174 72.7946 348.174 70.6663C348.174 70.0393 348.804 69.7256 349.726 69.7256C350.705 69.7256 352.239 70.1876 353.527 70.9136ZM333.843 67.6136V79.1639H343.327V77.0024H336.598V74.4449H342.473V72.2831H336.598V69.7751H343.137V67.6136H333.843ZM324.218 67.6136V79.1639H332.204V76.8869H326.973V67.6136H324.218ZM319.999 79.1639H322.945L317.732 67.6136H314.89L309.59 79.1639H312.432L313.391 76.9198H319.04L319.999 79.1639ZM314.297 74.8243L316.233 70.336L318.15 74.8243H314.297ZM305.527 67.6136V79.1639H308.282V67.6136H305.527ZM303.522 79.1639L300.924 75.3524C302.406 74.6922 303.208 73.4053 303.208 71.6232C303.208 69.0657 301.395 67.6136 298.204 67.6136H292.904V79.1639H295.658V75.8639H298.204H298.466L300.401 79.1639H303.522ZM295.658 69.7751H298.204C299.721 69.7751 300.593 70.4187 300.593 71.7055C300.593 73.0256 299.721 73.6858 298.204 73.6858H295.658V69.7751ZM288.684 79.1639H291.631L286.417 67.6136H283.575L278.275 79.1639H281.117L282.076 76.9198H287.725L288.684 79.1639ZM282.982 74.8243L284.918 70.336L286.836 74.8243H282.982ZM276.601 70.9136L277.665 68.7521C276.444 67.9929 274.735 67.498 273.027 67.498C270.202 67.498 268.301 68.8181 268.301 70.9136C268.301 75.0059 274.805 73.7353 274.805 75.9134C274.805 76.6227 274.125 77.019 272.992 77.019C271.701 77.019 269.923 76.3422 268.668 75.2864L267.569 77.415C268.947 78.5203 270.952 79.2466 272.957 79.2466C275.659 79.2466 277.734 78.0254 277.734 75.7647C277.752 71.6066 271.248 72.7946 271.248 70.6663C271.248 70.0393 271.876 69.7256 272.8 69.7256C273.776 69.7256 275.311 70.1876 276.601 70.9136ZM256.916 67.6136V79.1639H266.401V77.0024H259.671V74.4449H265.546V72.2831H259.671V69.7751H266.209V67.6136H256.916ZM254.911 79.1639L252.313 75.3524C253.795 74.6922 254.597 73.4053 254.597 71.6232C254.597 69.0657 252.783 67.6136 249.593 67.6136H244.292V79.1639H247.047V75.8639H249.593H249.854L251.79 79.1639H254.911ZM247.047 69.7751H249.593C251.11 69.7751 251.982 70.4187 251.982 71.7055C251.982 73.0256 251.11 73.6858 249.593 73.6858H247.047V69.7751ZM237.649 67.6136H232.471V79.1639H235.225V75.8639H237.649C240.753 75.8639 242.531 74.3128 242.531 71.6232C242.531 69.0657 240.753 67.6136 237.649 67.6136ZM237.51 73.6858H235.225V69.7751H237.51C239.044 69.7751 239.916 70.4187 239.916 71.7055C239.916 73.0256 239.044 73.6858 237.51 73.6858ZM216.517 67.6136V79.1639H219.01V71.3756L222.253 77.9922H224.049L227.292 71.3756V79.1639H229.768V67.6136H226.699L223.16 74.6756L219.603 67.6136H216.517ZM204.87 67.6136V79.1639H214.355V77.0024H207.625V74.4449H213.501V72.2831H207.625V69.7751H214.163V67.6136H204.87ZM196.57 70.9136L197.634 68.7521C196.414 67.9929 194.705 67.498 192.996 67.498C190.171 67.498 188.271 68.8181 188.271 70.9136C188.271 75.0059 194.774 73.7353 194.774 75.9134C194.774 76.6227 194.095 77.019 192.961 77.019C191.671 77.019 189.893 76.3422 188.637 75.2864L187.539 77.415C188.916 78.5203 190.921 79.2466 192.926 79.2466C195.629 79.2466 197.704 78.0254 197.704 75.7647C197.721 71.6066 191.218 72.7946 191.218 70.6663C191.218 70.0393 191.845 69.7256 192.769 69.7256C193.746 69.7256 195.28 70.1876 196.57 70.9136ZM184.313 79.1639H187.259L182.046 67.6136H179.204L173.904 79.1639H176.746L177.705 76.9198H183.354L184.313 79.1639ZM178.611 74.8243L180.547 70.336L182.465 74.8243H178.611ZM169.841 67.6136V79.1639H172.596V67.6136H169.841ZM165.046 76.3754C164.262 76.7548 163.39 77.0024 162.658 77.0024C160.496 77.0024 158.804 75.4347 158.804 73.3887C158.804 71.359 160.478 69.7917 162.64 69.7917C163.826 69.7917 165.081 70.2866 165.988 71.0785L167.54 69.2141C166.302 68.1911 164.453 67.5309 162.64 67.5309C158.839 67.5309 155.98 70.0555 155.98 73.3887C155.98 76.7382 158.787 79.2794 162.483 79.2794C164.175 79.2794 166.145 78.669 167.435 77.7778V73.3393H165.046V76.3754ZM154.846 79.1639L152.248 75.3524C153.731 74.6922 154.532 73.4053 154.532 71.6232C154.532 69.0657 152.719 67.6136 149.529 67.6136H144.228V79.1639H146.983V75.8639H149.529H149.79L151.725 79.1639H154.846ZM146.983 69.7751H149.529C151.045 69.7751 151.917 70.4187 151.917 71.7055C151.917 73.0256 151.045 73.6858 149.529 73.6858H146.983V69.7751ZM132.581 67.6136V79.1639H142.066V77.0024H135.336V74.4449H141.211V72.2831H135.336V69.7751H141.874V67.6136H132.581ZM118.841 67.6136V79.1639H121.474V71.7553L127.385 79.1639H129.895V67.6136H127.28V75.0387L121.352 67.6136H118.841ZM113.384 67.6136V79.1639H116.139V67.6136H113.384ZM110.315 70.9136L111.379 68.7521C110.158 67.9929 108.449 67.498 106.741 67.498C103.916 67.498 102.016 68.8181 102.016 70.9136C102.016 75.0059 108.519 73.7353 108.519 75.9134C108.519 76.6227 107.839 77.019 106.706 77.019C105.416 77.019 103.637 76.3422 102.382 75.2864L101.283 77.415C102.661 78.5203 104.666 79.2466 106.671 79.2466C109.374 79.2466 111.449 78.0254 111.449 75.7647C111.466 71.6066 104.963 72.7946 104.963 70.6663C104.963 70.0393 105.59 69.7256 106.514 69.7256C107.491 69.7256 109.025 70.1876 110.315 70.9136Z" fill="white"/>
<path d="M88.3406 45.1057C88.3406 20.9918 68.7921 1.44373 44.6783 1.44373C20.5645 1.44373 1.01636 20.9922 1.01636 45.106C1.01636 69.2198 20.5648 88.768 44.6786 88.768C68.7925 88.768 88.3406 69.2195 88.3406 45.1057Z" fill="#FFA00E" stroke="#FFA00E" stroke-width="2.03244"/>
<path d="M44.706 86.8267C67.5645 86.8267 86.095 68.2281 86.095 45.2856C86.095 22.3431 67.5645 3.74451 44.706 3.74451C21.8474 3.74451 3.31689 22.3431 3.31689 45.2856C3.31689 68.2281 21.8474 86.8267 44.706 86.8267Z" fill="white" stroke="white" stroke-width="1.02085"/>
<path d="M37.6524 61.2439L43.0992 66.2904H24.676V23.3129H39.0941V33.4061L50.1479 23.3129H70.4934L41.337 51.1505L51.7498 61.2439H58.3181L48.2255 51.1505L51.1091 48.2205L70.4934 66.2904H50.1479L34.1277 51.1505L58.3181 27.8711H51.7498L34.1277 45.1271V27.8711H29.6422V61.2439H37.6524Z" fill="#04368F"/>
</g>
<defs>
<clipPath id="clip0_7_118">
<rect width="355" height="89.4275" fill="white" transform="translate(0 0.42749)"/>
</clipPath>
</defs>
</svg>
