<svg width="355" height="91" viewBox="0 0 355 91" fill="none" xmlns="http://www.w3.org/2000/svg">
<g clip-path="url(#clip0_7_124)">
<path d="M343.974 59.0644L335.874 44.2075H333.599V59.0644H324.111V19.7075H340.035C343.104 19.7075 345.712 20.2494 347.859 21.3334C350.041 22.4173 351.667 23.9123 352.741 25.8185C353.814 27.6873 354.35 29.7804 354.35 32.0976C354.35 34.714 353.608 37.05 352.131 39.1058C350.688 41.1613 348.544 42.6192 345.695 43.4786L354.682 59.0644H343.974ZM333.599 37.4239H339.479C341.217 37.4239 342.514 36.9941 343.364 36.1343C344.252 35.2746 344.696 34.0599 344.696 32.4901C344.696 30.9951 344.252 29.8177 343.364 28.9581C342.514 28.0984 341.217 27.6686 339.479 27.6686H333.599V37.4239ZM298.923 59.457C295.261 59.457 291.895 58.5972 288.825 56.8781C285.792 55.1587 283.369 52.7665 281.557 49.7019C279.781 46.5997 278.894 43.1236 278.894 39.2738C278.894 35.424 279.781 31.9669 281.557 28.902C283.369 25.8372 285.792 23.4451 288.825 21.7258C291.895 20.0065 295.261 19.1469 298.923 19.1469C302.584 19.1469 305.932 20.0065 308.965 21.7258C312.035 23.4451 314.439 25.8372 316.177 28.902C317.953 31.9669 318.841 35.424 318.841 39.2738C318.841 43.1236 317.953 46.5997 316.177 49.7019C314.402 52.7665 311.998 55.1587 308.965 56.8781C305.932 58.5972 302.584 59.457 298.923 59.457ZM298.923 50.711C302.03 50.711 304.508 49.6643 306.357 47.5712C308.244 45.4782 309.187 42.7123 309.187 39.2738C309.187 35.798 308.244 33.0321 306.357 30.9764C304.508 28.8833 302.03 27.8368 298.923 27.8368C295.778 27.8368 293.263 28.8646 291.377 30.9203C289.528 32.976 288.603 35.7604 288.603 39.2738C288.603 42.7499 289.528 45.5344 291.377 47.6275C293.263 49.6833 295.778 50.711 298.923 50.711ZM275.731 19.7075V27.3883H265.411V59.0644H255.924V27.3883H245.604V19.7075H275.731ZM231.068 52.1127H216.532L214.201 59.0644H204.27L218.363 19.7075H229.348L243.441 59.0644H233.398L231.068 52.1127ZM228.627 44.7119L223.8 30.3036L219.028 44.7119H228.627ZM186.294 27.3883V35.3495H198.999V42.7499H186.294V51.3838H200.664V59.0644H176.806V19.7075H200.664V27.3883H186.294ZM160.495 59.0644L152.394 44.2075H150.119V59.0644H140.632V19.7075H156.555C159.625 19.7075 162.233 20.2494 164.378 21.3334C166.561 22.4173 168.188 23.9123 169.261 25.8185C170.333 27.6873 170.87 29.7804 170.87 32.0976C170.87 34.714 170.13 37.05 168.65 39.1058C167.208 41.1613 165.063 42.6192 162.215 43.4786L171.203 59.0644H160.495ZM150.119 37.4239H156.001C157.739 37.4239 159.034 36.9941 159.884 36.1343C160.772 35.2746 161.216 34.0599 161.216 32.4901C161.216 30.9951 160.772 29.8177 159.884 28.9581C159.034 28.0984 157.739 27.6686 156.001 27.6686H150.119V37.4239ZM124.542 59.0644L111.448 41.6846V59.0644H101.961V19.7075H111.448V36.9751L124.431 19.7075H135.583L120.492 38.9937L136.138 59.0644H124.542Z" fill="#FFA00E"/>
<path d="M353.527 71.3411L354.59 69.1796C353.371 68.4204 351.663 67.9255 349.953 67.9255C347.128 67.9255 345.227 69.2456 345.227 71.3411C345.227 75.4334 351.731 74.1628 351.731 76.3409C351.731 77.0502 351.054 77.4465 349.919 77.4465C348.628 77.4465 346.85 76.7697 345.593 75.7139L344.496 77.8425C345.874 78.9478 347.88 79.6741 349.885 79.6741C352.585 79.6741 354.661 78.4529 354.661 76.1922C354.678 72.0341 348.174 73.2221 348.174 71.0938C348.174 70.4668 348.804 70.1531 349.726 70.1531C350.705 70.1531 352.239 70.6151 353.527 71.3411ZM333.843 68.041V79.5914H343.327V77.4299H336.598V74.8724H342.473V72.7106H336.598V70.2026H343.137V68.041H333.843ZM324.218 68.041V79.5914H332.204V77.3144H326.973V68.041H324.218ZM319.999 79.5914H322.945L317.732 68.041H314.89L309.59 79.5914H312.432L313.391 77.3473H319.04L319.999 79.5914ZM314.297 75.2518L316.233 70.7635L318.15 75.2518H314.297ZM305.527 68.041V79.5914H308.282V68.041H305.527ZM303.522 79.5914L300.924 75.7799C302.406 75.1197 303.208 73.8328 303.208 72.0507C303.208 69.4932 301.395 68.041 298.204 68.041H292.904V79.5914H295.658V76.2914H298.204H298.466L300.401 79.5914H303.522ZM295.658 70.2026H298.204C299.721 70.2026 300.593 70.8462 300.593 72.133C300.593 73.4531 299.721 74.1133 298.204 74.1133H295.658V70.2026ZM288.684 79.5914H291.631L286.417 68.041H283.575L278.275 79.5914H281.117L282.076 77.3473H287.725L288.684 79.5914ZM282.982 75.2518L284.918 70.7635L286.836 75.2518H282.982ZM276.601 71.3411L277.665 69.1796C276.444 68.4204 274.735 67.9255 273.027 67.9255C270.202 67.9255 268.301 69.2456 268.301 71.3411C268.301 75.4334 274.805 74.1628 274.805 76.3409C274.805 77.0502 274.125 77.4465 272.992 77.4465C271.701 77.4465 269.923 76.7697 268.668 75.7139L267.569 77.8425C268.947 78.9478 270.952 79.6741 272.957 79.6741C275.659 79.6741 277.734 78.4529 277.734 76.1922C277.752 72.0341 271.248 73.2221 271.248 71.0938C271.248 70.4668 271.876 70.1531 272.8 70.1531C273.776 70.1531 275.311 70.6151 276.601 71.3411ZM256.916 68.041V79.5914H266.401V77.4299H259.671V74.8724H265.546V72.7106H259.671V70.2026H266.209V68.041H256.916ZM254.911 79.5914L252.313 75.7799C253.795 75.1197 254.597 73.8328 254.597 72.0507C254.597 69.4932 252.783 68.041 249.593 68.041H244.292V79.5914H247.047V76.2914H249.593H249.854L251.79 79.5914H254.911ZM247.047 70.2026H249.593C251.11 70.2026 251.982 70.8462 251.982 72.133C251.982 73.4531 251.11 74.1133 249.593 74.1133H247.047V70.2026ZM237.649 68.041H232.471V79.5914H235.225V76.2914H237.649C240.753 76.2914 242.531 74.7403 242.531 72.0507C242.531 69.4932 240.753 68.041 237.649 68.041ZM237.51 74.1133H235.225V70.2026H237.51C239.044 70.2026 239.916 70.8462 239.916 72.133C239.916 73.4531 239.044 74.1133 237.51 74.1133ZM216.517 68.041V79.5914H219.01V71.8031L222.253 78.4197H224.049L227.292 71.8031V79.5914H229.768V68.041H226.699L223.16 75.1031L219.603 68.041H216.517ZM204.87 68.041V79.5914H214.355V77.4299H207.625V74.8724H213.501V72.7106H207.625V70.2026H214.163V68.041H204.87ZM196.57 71.3411L197.634 69.1796C196.414 68.4204 194.705 67.9255 192.996 67.9255C190.171 67.9255 188.271 69.2456 188.271 71.3411C188.271 75.4334 194.774 74.1628 194.774 76.3409C194.774 77.0502 194.095 77.4465 192.961 77.4465C191.671 77.4465 189.893 76.7697 188.637 75.7139L187.539 77.8425C188.916 78.9478 190.921 79.6741 192.926 79.6741C195.629 79.6741 197.704 78.4529 197.704 76.1922C197.721 72.0341 191.218 73.2221 191.218 71.0938C191.218 70.4668 191.845 70.1531 192.769 70.1531C193.746 70.1531 195.28 70.6151 196.57 71.3411ZM184.313 79.5914H187.259L182.046 68.041H179.204L173.904 79.5914H176.746L177.705 77.3473H183.354L184.313 79.5914ZM178.611 75.2518L180.547 70.7635L182.465 75.2518H178.611ZM169.841 68.041V79.5914H172.596V68.041H169.841ZM165.046 76.8029C164.262 77.1823 163.39 77.4299 162.658 77.4299C160.496 77.4299 158.804 75.8622 158.804 73.8162C158.804 71.7865 160.478 70.2191 162.64 70.2191C163.826 70.2191 165.081 70.7141 165.988 71.506L167.54 69.6416C166.302 68.6186 164.453 67.9584 162.64 67.9584C158.839 67.9584 155.98 70.483 155.98 73.8162C155.98 77.1657 158.787 79.7069 162.483 79.7069C164.175 79.7069 166.145 79.0965 167.435 78.2053V73.7668H165.046V76.8029ZM154.846 79.5914L152.248 75.7799C153.731 75.1197 154.532 73.8328 154.532 72.0507C154.532 69.4932 152.719 68.041 149.529 68.041H144.228V79.5914H146.983V76.2914H149.529H149.79L151.725 79.5914H154.846ZM146.983 70.2026H149.529C151.045 70.2026 151.917 70.8462 151.917 72.133C151.917 73.4531 151.045 74.1133 149.529 74.1133H146.983V70.2026ZM132.581 68.041V79.5914H142.066V77.4299H135.336V74.8724H141.211V72.7106H135.336V70.2026H141.874V68.041H132.581ZM118.841 68.041V79.5914H121.474V72.1828L127.385 79.5914H129.895V68.041H127.28V75.4662L121.352 68.041H118.841ZM113.384 68.041V79.5914H116.139V68.041H113.384ZM110.315 71.3411L111.379 69.1796C110.158 68.4204 108.449 67.9255 106.741 67.9255C103.916 67.9255 102.016 69.2456 102.016 71.3411C102.016 75.4334 108.519 74.1628 108.519 76.3409C108.519 77.0502 107.839 77.4465 106.706 77.4465C105.416 77.4465 103.637 76.7697 102.382 75.7139L101.283 77.8425C102.661 78.9478 104.666 79.6741 106.671 79.6741C109.374 79.6741 111.449 78.4529 111.449 76.1922C111.466 72.0341 104.963 73.2221 104.963 71.0938C104.963 70.4668 105.59 70.1531 106.514 70.1531C107.491 70.1531 109.025 70.6151 110.315 71.3411Z" fill="#FFA00E"/>
<path d="M44.6786 1.87122H44.6783C20.5645 1.87122 1.01636 21.4193 1.01636 45.5332V45.5335C1.01636 69.6473 20.5645 89.1954 44.6783 89.1954H44.6786C68.7925 89.1954 88.3406 69.6473 88.3406 45.5335V45.5332C88.3406 21.4193 68.7925 1.87122 44.6786 1.87122Z" fill="#FFA00E" stroke="#FFA00E" stroke-width="2.03244"/>
<path d="M44.706 87.2542C67.5645 87.2542 86.095 68.6556 86.095 45.7131C86.095 22.7706 67.5645 4.172 44.706 4.172C21.8474 4.172 3.31689 22.7706 3.31689 45.7131C3.31689 68.6556 21.8474 87.2542 44.706 87.2542Z" fill="white" stroke="white" stroke-width="1.02085"/>
<path d="M37.6524 61.6714L43.0992 66.7179H24.676V23.7404H39.0941V33.8336L50.1479 23.7404H70.4934L41.337 51.578L51.7498 61.6714H58.3181L48.2255 51.578L51.1091 48.648L70.4934 66.7179H50.1479L34.1277 51.578L58.3181 28.2986H51.7498L34.1277 45.5546V28.2986H29.6422V61.6714H37.6524Z" fill="#FFA00E"/>
</g>
<defs>
<clipPath id="clip0_7_124">
<rect width="355" height="89.4275" fill="white" transform="translate(0 0.85498)"/>
</clipPath>
</defs>
</svg>
