<svg width="91" height="90" viewBox="0 0 91 90" fill="none" xmlns="http://www.w3.org/2000/svg">
<path d="M45.6623 1.32422H45.6619C21.5481 1.32422 2 20.8723 2 44.9862V44.9865C2 69.1003 21.5481 88.6485 45.6619 88.6485H45.6623C69.7761 88.6485 89.3242 69.1003 89.3242 44.9865V44.9862C89.3242 20.8723 69.7761 1.32422 45.6623 1.32422Z" fill="#FFA00E" stroke="#FFA00E" stroke-width="2.03244"/>
<path d="M45.6898 86.7072C68.5484 86.7072 87.0789 68.1086 87.0789 45.1661C87.0789 22.2236 68.5484 3.625 45.6898 3.625C22.8313 3.625 4.30078 22.2236 4.30078 45.1661C4.30078 68.1086 22.8313 86.7072 45.6898 86.7072Z" fill="white" stroke="white" stroke-width="1.02085"/>
<path d="M38.6365 61.1244L44.0833 66.1709H25.6602V23.1934H40.0782V33.2866L51.132 23.1934H71.4776L42.3212 51.031L52.734 61.1244H59.3022L49.2096 51.031L52.0933 48.101L71.4776 66.1709H51.132L35.1118 51.031L59.3022 27.7516H52.734L35.1118 45.0076V27.7516H30.6264V61.1244H38.6365Z" fill="#04368F"/>
</svg>
