<svg width="88" height="88" viewBox="0 0 88 88" fill="none" xmlns="http://www.w3.org/2000/svg">
<path d="M43.6621 1.15039C67.1408 1.15039 86.1738 20.1834 86.1738 43.6621L86.1602 44.7598C85.578 67.7313 66.7739 86.1738 43.6621 86.1738L42.5645 86.1602C19.593 85.578 1.15039 66.7739 1.15039 43.6621L1.16406 42.5645C1.73694 19.9577 19.9577 1.73694 42.5645 1.16406L43.6621 1.15039Z" stroke="#FFA00E" stroke-width="2.3"/>
<path d="M43.6898 85.3829C66.5484 85.3829 85.0789 66.7844 85.0789 43.8419C85.0789 20.8994 66.5484 2.30078 43.6898 2.30078C20.8313 2.30078 2.30078 20.8994 2.30078 43.8419C2.30078 66.7844 20.8313 85.3829 43.6898 85.3829Z" fill="white" stroke="#FFA00E" stroke-width="1.02085"/>
<path d="M36.6365 59.8002L42.0833 64.8467H23.6602V21.8691H38.0782V31.9624L49.132 21.8691H69.4776L40.3212 49.7068L50.734 59.8002H57.3022L47.2096 49.7068L50.0933 46.7767L69.4776 64.8467H49.132L33.1118 49.7068L57.3022 26.4274H50.734L33.1118 43.6834V26.4274H28.6264V59.8002H36.6365Z" fill="#FFA00E"/>
</svg>
