<svg width="91" height="91" viewBox="0 0 91 91" fill="none" xmlns="http://www.w3.org/2000/svg">
<path d="M45.6623 2H45.6619C21.5481 2 2 21.5481 2 45.6619V45.6623C2 69.7761 21.5481 89.3242 45.6619 89.3242H45.6623C69.7761 89.3242 89.3242 69.7761 89.3242 45.6623V45.6619C89.3242 21.5481 69.7761 2 45.6623 2Z" fill="#04368F" stroke="#04368F" stroke-width="2.03244"/>
<path d="M45.6898 87.3829C68.5484 87.3829 87.0789 68.7844 87.0789 45.8419C87.0789 22.8994 68.5484 4.30078 45.6898 4.30078C22.8313 4.30078 4.30078 22.8994 4.30078 45.8419C4.30078 68.7844 22.8313 87.3829 45.6898 87.3829Z" fill="white" stroke="white" stroke-width="1.02085"/>
<path d="M38.6365 61.8002L44.0833 66.8467H25.6602V23.8691H40.0782V33.9624L51.132 23.8691H71.4776L42.3212 51.7068L52.734 61.8002H59.3022L49.2096 51.7068L52.0933 48.7767L71.4776 66.8467H51.132L35.1118 51.7068L59.3022 28.4274H52.734L35.1118 45.6834V28.4274H30.6264V61.8002H38.6365Z" fill="#FFA00E"/>
</svg>
