<svg width="91" height="90" viewBox="0 0 91 90" fill="none" xmlns="http://www.w3.org/2000/svg">
<path d="M45.6623 1.64844H45.6619C21.5481 1.64844 2 21.1966 2 45.3104V45.3107C2 69.4246 21.5481 88.9727 45.6619 88.9727H45.6623C69.7761 88.9727 89.3242 69.4246 89.3242 45.3107V45.3104C89.3242 21.1966 69.7761 1.64844 45.6623 1.64844Z" fill="#FFA00E" stroke="#FFA00E" stroke-width="2.03244"/>
<path d="M45.6898 87.0314C68.5484 87.0314 87.0789 68.4328 87.0789 45.4903C87.0789 22.5478 68.5484 3.94922 45.6898 3.94922C22.8313 3.94922 4.30078 22.5478 4.30078 45.4903C4.30078 68.4328 22.8313 87.0314 45.6898 87.0314Z" fill="#04368F" stroke="#FFA00E" stroke-width="1.02085"/>
<path d="M38.6365 61.4486L44.0833 66.4951H25.6602V23.5176H40.0782V33.6108L51.132 23.5176H71.4776L42.3212 51.3552L52.734 61.4486H59.3022L49.2096 51.3552L52.0933 48.4252L71.4776 66.4951H51.132L35.1118 51.3552L59.3022 28.0758H52.734L35.1118 45.3318V28.0758H30.6264V61.4486H38.6365Z" fill="#FFA00E"/>
</svg>
